REM DIRINDEX 1\2,1\3
REM DIRNAME cjc039,folder01,folder02
TITLE ""
FILE "2921-2940.mp3" MP3
  TRACK 01 AUDIO
    TITLE "0:"
    INDEX 01 00:00:00
  TRACK 02 AUDIO
    TITLE "2:cjc039_4841"
    INDEX 01 00:00:25
  TRACK 03 AUDIO
    TITLE "0:"
    INDEX 01 00:01:38
  TRACK 04 AUDIO
    TITLE "3:cjc039_4842"
    INDEX 01 00:02:14
  TRACK 05 AUDIO
    TITLE "0:"
    INDEX 01 00:05:40
  TRACK 06 AUDIO
    TITLE "2:cjc039_4843"
    INDEX 01 00:07:13
  TRACK 07 AUDIO
    TITLE "0:"
    INDEX 01 00:08:40
  TRACK 08 AUDIO
    TITLE "3:cjc039_4844"
    INDEX 01 00:09:22
  TRACK 09 AUDIO
    TITLE "0:"
    INDEX 01 00:12:52
  TRACK 10 AUDIO
    TITLE "2:cjc039_4845"
    INDEX 01 00:14:27
  TRACK 11 AUDIO
    TITLE "0:"
    INDEX 01 00:15:32
  TRACK 12 AUDIO
    TITLE "3:cjc039_4846"
    INDEX 01 00:16:08
  TRACK 13 AUDIO
    TITLE "0:"
    INDEX 01 00:18:66
  TRACK 14 AUDIO
    TITLE "2:cjc039_4847"
    INDEX 01 00:20:45
  TRACK 15 AUDIO
    TITLE "0:"
    INDEX 01 00:22:13
  TRACK 16 AUDIO
    TITLE "3:cjc039_4848"
    INDEX 01 00:22:58
  TRACK 17 AUDIO
    TITLE "0:"
    INDEX 01 00:26:07
  TRACK 18 AUDIO
    TITLE "2:cjc039_4849"
    INDEX 01 00:27:57
  TRACK 19 AUDIO
    TITLE "0:"
    INDEX 01 00:29:15
  TRACK 20 AUDIO
    TITLE "3:cjc039_4850"
    INDEX 01 00:29:64
  TRACK 21 AUDIO
    TITLE "0:"
    INDEX 01 00:33:46
  TRACK 22 AUDIO
    TITLE "2:cjc039_4851"
    INDEX 01 00:35:19
  TRACK 23 AUDIO
    TITLE "0:"
    INDEX 01 00:36:31
  TRACK 24 AUDIO
    TITLE "3:cjc039_4852"
    INDEX 01 00:37:01
  TRACK 25 AUDIO
    TITLE "0:"
    INDEX 01 00:40:52
  TRACK 26 AUDIO
    TITLE "2:cjc039_4853"
    INDEX 01 00:42:29
  TRACK 27 AUDIO
    TITLE "0:"
    INDEX 01 00:43:31
  TRACK 28 AUDIO
    TITLE "3:cjc039_4854"
    INDEX 01 00:44:09
  TRACK 29 AUDIO
    TITLE "0:"
    INDEX 01 00:46:56
  TRACK 30 AUDIO
    TITLE "2:cjc039_4855"
    INDEX 01 00:48:36
  TRACK 31 AUDIO
    TITLE "0:"
    INDEX 01 00:50:07
  TRACK 32 AUDIO
    TITLE "3:cjc039_4856"
    INDEX 01 00:50:56
  TRACK 33 AUDIO
    TITLE "0:"
    INDEX 01 00:55:08
  TRACK 34 AUDIO
    TITLE "2:cjc039_4857"
    INDEX 01 00:56:55
  TRACK 35 AUDIO
    TITLE "0:"
    INDEX 01 00:57:56
  TRACK 36 AUDIO
    TITLE "3:cjc039_4858"
    INDEX 01 00:58:32
  TRACK 37 AUDIO
    TITLE "0:"
    INDEX 01 01:01:05
  TRACK 38 AUDIO
    TITLE "2:cjc039_4859"
    INDEX 01 01:02:59
  TRACK 39 AUDIO
    TITLE "0:"
    INDEX 01 01:04:00
  TRACK 40 AUDIO
    TITLE "3:cjc039_4860"
    INDEX 01 01:04:52
  TRACK 41 AUDIO
    TITLE "0:"
    INDEX 01 01:07:68
  TRACK 42 AUDIO
    TITLE "2:cjc039_4861"
    INDEX 01 01:09:44
  TRACK 43 AUDIO
    TITLE "0:"
    INDEX 01 01:10:41
  TRACK 44 AUDIO
    TITLE "3:cjc039_4862"
    INDEX 01 01:11:23
  TRACK 45 AUDIO
    TITLE "0:"
    INDEX 01 01:14:00
  TRACK 46 AUDIO
    TITLE "2:cjc039_4863"
    INDEX 01 01:15:48
  TRACK 47 AUDIO
    TITLE "0:"
    INDEX 01 01:16:73
  TRACK 48 AUDIO
    TITLE "3:cjc039_4864"
    INDEX 01 01:17:47
  TRACK 49 AUDIO
    TITLE "0:"
    INDEX 01 01:20:59
  TRACK 50 AUDIO
    TITLE "2:cjc039_4865"
    INDEX 01 01:22:33
  TRACK 51 AUDIO
    TITLE "0:"
    INDEX 01 01:23:42
  TRACK 52 AUDIO
    TITLE "3:cjc039_4866"
    INDEX 01 01:24:24
  TRACK 53 AUDIO
    TITLE "0:"
    INDEX 01 01:28:72
  TRACK 54 AUDIO
    TITLE "2:cjc039_4867"
    INDEX 01 01:30:44
  TRACK 55 AUDIO
    TITLE "0:"
    INDEX 01 01:32:12
  TRACK 56 AUDIO
    TITLE "3:cjc039_4868"
    INDEX 01 01:32:57
  TRACK 57 AUDIO
    TITLE "0:"
    INDEX 01 01:35:61
  TRACK 58 AUDIO
    TITLE "2:cjc039_4869"
    INDEX 01 01:37:34
  TRACK 59 AUDIO
    TITLE "0:"
    INDEX 01 01:38:40
  TRACK 60 AUDIO
    TITLE "3:cjc039_4870"
    INDEX 01 01:39:19
  TRACK 61 AUDIO
    TITLE "0:"
    INDEX 01 01:43:25
  TRACK 62 AUDIO
    TITLE "2:cjc039_4871"
    INDEX 01 01:45:04
  TRACK 63 AUDIO
    TITLE "0:"
    INDEX 01 01:46:49
  TRACK 64 AUDIO
    TITLE "3:cjc039_4872"
    INDEX 01 01:47:21
  TRACK 65 AUDIO
    TITLE "0:"
    INDEX 01 01:50:39
  TRACK 66 AUDIO
    TITLE "2:cjc039_4873"
    INDEX 01 01:52:20
  TRACK 67 AUDIO
    TITLE "0:"
    INDEX 01 01:53:33
  TRACK 68 AUDIO
    TITLE "3:cjc039_4874"
    INDEX 01 01:54:05
  TRACK 69 AUDIO
    TITLE "0:"
    INDEX 01 01:57:33
  TRACK 70 AUDIO
    TITLE "2:cjc039_4875"
    INDEX 01 01:59:10
  TRACK 71 AUDIO
    TITLE "0:"
    INDEX 01 02:00:41
  TRACK 72 AUDIO
    TITLE "3:cjc039_4876"
    INDEX 01 02:01:19
  TRACK 73 AUDIO
    TITLE "0:"
    INDEX 01 02:05:33
  TRACK 74 AUDIO
    TITLE "2:cjc039_4877"
    INDEX 01 02:07:04
  TRACK 75 AUDIO
    TITLE "0:"
    INDEX 01 02:08:19
  TRACK 76 AUDIO
    TITLE "3:cjc039_4878"
    INDEX 01 02:09:01
  TRACK 77 AUDIO
    TITLE "0:"
    INDEX 01 02:12:64
  TRACK 78 AUDIO
    TITLE "2:cjc039_4879"
    INDEX 01 02:14:39
  TRACK 79 AUDIO
    TITLE "0:"
    INDEX 01 02:15:51
  TRACK 80 AUDIO
    TITLE "3:cjc039_4880"
    INDEX 01 02:16:30
  TRACK 81 AUDIO
    TITLE "0:"
    INDEX 01 02:19:50
